<svg width="40" height="41" viewBox="0 0 40 41" fill="none" xmlns="http://www.w3.org/2000/svg">
<path d="M33.3844 13.3656L24.6344 4.61563C24.5182 4.49958 24.3803 4.40756 24.2286 4.34483C24.0768 4.28209 23.9142 4.24987 23.75 4.25H8.75C8.08696 4.25 7.45107 4.51339 6.98223 4.98223C6.51339 5.45107 6.25 6.08696 6.25 6.75V34.25C6.25 34.913 6.51339 35.5489 6.98223 36.0178C7.45107 36.4866 8.08696 36.75 8.75 36.75H31.25C31.913 36.75 32.5489 36.4866 33.0178 36.0178C33.4866 35.5489 33.75 34.913 33.75 34.25V14.25C33.7501 14.0858 33.7179 13.9232 33.6552 13.7714C33.5924 13.6197 33.5004 13.4818 33.3844 13.3656ZM25 8.51719L29.4828 13H25V8.51719ZM31.25 34.25H8.75V6.75H22.5V14.25C22.5 14.5815 22.6317 14.8995 22.8661 15.1339C23.1005 15.3683 23.4185 15.5 23.75 15.5H31.25V34.25Z" fill="white"/>
</svg>
