<svg width="41" height="41" viewBox="0 0 41 41" fill="none" xmlns="http://www.w3.org/2000/svg">
<rect x="0.5" y="0.5" width="40" height="40" rx="20" stroke="#1D1D1D"/>
<path d="M20 10C21.3261 10 22.5979 10.5268 23.5355 11.4645C24.4732 12.4021 25 13.6739 25 15C25 16.3261 24.4732 17.5979 23.5355 18.5355C22.5979 19.4732 21.3261 20 20 20C18.6739 20 17.4021 19.4732 16.4645 18.5355C15.5268 17.5979 15 16.3261 15 15C15 13.6739 15.5268 12.4021 16.4645 11.4645C17.4021 10.5268 18.6739 10 20 10ZM20 12.5C19.337 12.5 18.7011 12.7634 18.2322 13.2322C17.7634 13.7011 17.5 14.337 17.5 15C17.5 15.663 17.7634 16.2989 18.2322 16.7678C18.7011 17.2366 19.337 17.5 20 17.5C20.663 17.5 21.2989 17.2366 21.7678 16.7678C22.2366 16.2989 22.5 15.663 22.5 15C22.5 14.337 22.2366 13.7011 21.7678 13.2322C21.2989 12.7634 20.663 12.5 20 12.5ZM20 21.25C23.3375 21.25 30 22.9125 30 26.25V30H10V26.25C10 22.9125 16.6625 21.25 20 21.25ZM20 23.625C16.2875 23.625 12.375 25.45 12.375 26.25V27.625H27.625V26.25C27.625 25.45 23.7125 23.625 20 23.625Z" fill="#1D1D1D"/>
<path d="M20 12.5C19.337 12.5 18.7011 12.7634 18.2322 13.2322C17.7634 13.7011 17.5 14.337 17.5 15C17.5 15.663 17.7634 16.2989 18.2322 16.7678C18.7011 17.2366 19.337 17.5 20 17.5C20.663 17.5 21.2989 17.2366 21.7678 16.7678C22.2366 16.2989 22.5 15.663 22.5 15C22.5 14.337 22.2366 13.7011 21.7678 13.2322C21.2989 12.7634 20.663 12.5 20 12.5Z" fill="#1D1D1D"/>
<path d="M20 23.625C16.2875 23.625 12.375 25.45 12.375 26.25V27.625H27.625V26.25C27.625 25.45 23.7125 23.625 20 23.625Z" fill="#1D1D1D"/>
</svg>
