<svg width="16" height="12" viewBox="0 0 16 12" fill="none" xmlns="http://www.w3.org/2000/svg">
<path d="M15.3063 2.42322C15.6898 2.42322 16 2.12127 16 1.74881C16 1.37634 15.6898 1.07439 15.3063 1.07439H12.8026C12.7827 0.0010448 12.614 0 11.2123 0H11.1227C9.70564 0 9.54928 0.0010448 9.53208 1.07439H6.4672C6.44714 0.0010448 6.2786 0 4.87691 0H4.78771C3.37008 0 3.2139 0.0010448 3.1967 1.07439H0.693682C0.310572 1.07439 0 1.37616 0 1.74881C0 2.12145 0.310572 2.42322 0.693682 2.42322H15.3063Z" fill="white"/>
<path d="M15.1854 3.4273C14.6884 2.77344 13.9032 2.77344 12.6027 2.77344H4.23068C2.46845 2.77344 1.58384 2.77344 0.987231 3.35277C0.390625 3.93211 0.390625 4.79145 0.390625 6.50334V7.99983C0.390625 9.81254 0.390625 10.7227 0.922215 11.3318C1.50521 11.9996 2.45161 11.9996 4.01969 11.9996H12.6023C13.7955 11.9996 14.6581 11.9996 15.1689 11.2758C15.5914 10.6775 15.6104 9.77824 15.6104 7.96256V6.49185C15.6104 4.77125 15.6104 3.98627 15.1854 3.4273ZM6.02408 6.35254C6.02408 6.87929 6.02408 6.87755 5.48658 6.87755H3.57228C3.0346 6.87755 3.0346 6.87981 3.0346 6.35254V6.32294C3.0346 5.80176 3.0346 5.79776 3.57228 5.79776H5.4864C6.0239 5.79776 6.0239 5.79602 6.0239 6.32294L6.02408 6.35254ZM13.0992 6.35219C13.0992 6.87929 13.0992 6.87755 12.5617 6.87755H12.1599V7.26848C12.1599 7.79087 12.1617 7.79087 11.6196 7.79087H11.5895C11.0475 7.79087 11.0495 7.79087 11.0495 7.26848V6.87755H10.6472C10.1099 6.87755 10.1099 6.87981 10.1099 6.35219V6.32294C10.1099 5.80142 10.1099 5.79776 10.6472 5.79776H11.0495V5.40683C11.0495 4.88444 11.047 4.88426 11.5895 4.88426H11.6196C12.1558 4.88426 12.1599 4.88444 12.1599 5.40683V5.79776H12.5617C13.0992 5.79776 13.0992 5.79602 13.0992 6.32294V6.35219Z" fill="white"/>
</svg>
