<svg width="40" height="41" viewBox="0 0 40 41" fill="none" xmlns="http://www.w3.org/2000/svg">
<path d="M28.3333 30.4999C29.2174 30.4999 30.0652 30.8511 30.6903 31.4762C31.3155 32.1014 31.6667 32.9492 31.6667 33.8333C31.6667 34.7173 31.3155 35.5652 30.6903 36.1903C30.0652 36.8154 29.2174 37.1666 28.3333 37.1666C27.4493 37.1666 26.6014 36.8154 25.9763 36.1903C25.3512 35.5652 25 34.7173 25 33.8333C25 31.9833 26.4833 30.4999 28.3333 30.4999ZM1.66666 3.83325H7.11666L8.68332 7.16659H33.3333C33.7753 7.16659 34.1993 7.34218 34.5118 7.65474C34.8244 7.9673 35 8.39122 35 8.83325C35 9.11659 34.9167 9.39992 34.8 9.66658L28.8333 20.4499C28.2667 21.4666 27.1667 22.1666 25.9167 22.1666H13.5L12 24.8833L11.95 25.0833C11.95 25.1938 11.9939 25.2997 12.072 25.3779C12.1502 25.456 12.2561 25.4999 12.3667 25.4999H31.6667V28.8333H11.6667C10.7826 28.8333 9.93475 28.4821 9.30963 27.8569C8.68451 27.2318 8.33332 26.384 8.33332 25.4999C8.33332 24.9166 8.48332 24.3666 8.73332 23.8999L11 19.8166L4.99999 7.16659H1.66666V3.83325ZM11.6667 30.4999C12.5507 30.4999 13.3986 30.8511 14.0237 31.4762C14.6488 32.1014 15 32.9492 15 33.8333C15 34.7173 14.6488 35.5652 14.0237 36.1903C13.3986 36.8154 12.5507 37.1666 11.6667 37.1666C10.7826 37.1666 9.93475 36.8154 9.30963 36.1903C8.68451 35.5652 8.33332 34.7173 8.33332 33.8333C8.33332 31.9833 9.81666 30.4999 11.6667 30.4999ZM26.6667 18.8333L31.3 10.4999H10.2333L14.1667 18.8333H26.6667Z" fill="white"/>
</svg>
