<svg width="40" height="41" viewBox="0 0 40 41" fill="none" xmlns="http://www.w3.org/2000/svg">
<path d="M20 37.1666C17.6945 37.1666 15.5278 36.7288 13.5 35.8533C11.4722 34.9777 9.70835 33.7905 8.20835 32.2916C6.70834 30.7916 5.52112 29.0277 4.64668 26.9999C3.77223 24.9721 3.33445 22.8055 3.33334 20.4999C3.33334 18.1944 3.77112 16.0277 4.64668 13.9999C5.52223 11.9721 6.70946 10.2083 8.20835 8.70825C9.70835 7.20825 11.4722 6.02103 13.5 5.14659C15.5278 4.27214 17.6945 3.83436 20 3.83325C22.3056 3.83325 24.4722 4.27103 26.5 5.14659C28.5278 6.02214 30.2917 7.20936 31.7917 8.70825C33.2917 10.2083 34.4795 11.9721 35.355 13.9999C36.2306 16.0277 36.6678 18.1944 36.6667 20.4999C36.6667 22.8055 36.2289 24.9721 35.3534 26.9999C34.4778 29.0277 33.2906 30.7916 31.7917 32.2916C30.2917 33.7916 28.5278 34.9794 26.5 35.8549C24.4722 36.7305 22.3056 37.1677 20 37.1666ZM21.6667 33.7083C24.9722 33.2916 27.7434 31.8399 29.98 29.3533C32.2167 26.8666 33.3345 23.9155 33.3334 20.4999C33.3334 17.0833 32.215 14.1321 29.9784 11.6466C27.7417 9.16103 24.9711 7.70936 21.6667 7.29159V33.7083Z" fill="white"/>
</svg>
