<svg width="40" height="41" viewBox="0 0 40 41" fill="none" xmlns="http://www.w3.org/2000/svg">
<path d="M18.3333 28.8333H21.6667V18.8333H18.3333V28.8333ZM20 15.4999C20.4722 15.4999 20.8683 15.3399 21.1884 15.0199C21.5084 14.6999 21.6678 14.3044 21.6667 13.8333C21.6667 13.361 21.5067 12.9655 21.1867 12.6466C20.8667 12.3277 20.4711 12.1677 20 12.1666C19.5278 12.1666 19.1322 12.3266 18.8133 12.6466C18.4945 12.9666 18.3345 13.3621 18.3333 13.8333C18.3333 14.3055 18.4933 14.7016 18.8133 15.0216C19.1333 15.3416 19.5289 15.501 20 15.4999ZM20 37.1666C17.6945 37.1666 15.5278 36.7288 13.5 35.8533C11.4722 34.9777 9.70835 33.7905 8.20835 32.2916C6.70834 30.7916 5.52112 29.0277 4.64668 26.9999C3.77223 24.9721 3.33445 22.8055 3.33334 20.4999C3.33334 18.1944 3.77112 16.0277 4.64668 13.9999C5.52223 11.9721 6.70946 10.2083 8.20835 8.70825C9.70835 7.20825 11.4722 6.02103 13.5 5.14659C15.5278 4.27214 17.6945 3.83436 20 3.83325C22.3056 3.83325 24.4722 4.27103 26.5 5.14659C28.5278 6.02214 30.2917 7.20936 31.7917 8.70825C33.2917 10.2083 34.4795 11.9721 35.355 13.9999C36.2306 16.0277 36.6678 18.1944 36.6667 20.4999C36.6667 22.8055 36.2289 24.9721 35.3534 26.9999C34.4778 29.0277 33.2906 30.7916 31.7917 32.2916C30.2917 33.7916 28.5278 34.9794 26.5 35.8549C24.4722 36.7305 22.3056 37.1677 20 37.1666ZM20 33.8333C23.7222 33.8333 26.875 32.5416 29.4584 29.9583C32.0417 27.3749 33.3334 24.2221 33.3334 20.4999C33.3334 16.7777 32.0417 13.6249 29.4584 11.0416C26.875 8.45825 23.7222 7.16659 20 7.16659C16.2778 7.16659 13.125 8.45825 10.5417 11.0416C7.95834 13.6249 6.66668 16.7777 6.66668 20.4999C6.66668 24.2221 7.95834 27.3749 10.5417 29.9583C13.125 32.5416 16.2778 33.8333 20 33.8333Z" fill="white"/>
</svg>
