<svg width="34" height="34" viewBox="0 0 34 34" fill="none" xmlns="http://www.w3.org/2000/svg">
<path d="M16.9997 33.6663C14.7219 33.6663 12.5691 33.2286 10.5413 32.353C8.51356 31.4775 6.74301 30.283 5.22967 28.7697C3.71523 27.2563 2.52079 25.4858 1.64634 23.458C0.771897 21.4302 0.334119 19.2775 0.333008 16.9997C0.333008 14.6941 0.770786 12.5347 1.64634 10.5213C2.5219 8.50801 3.71634 6.74412 5.22967 5.22967C6.74301 3.71523 8.51301 2.52079 10.5397 1.64634C12.5663 0.771897 14.7197 0.334119 16.9997 0.333008C19.3052 0.333008 21.4652 0.770786 23.4797 1.64634C25.4941 2.5219 27.2575 3.71634 28.7697 5.22967C30.2841 6.74301 31.4786 8.5069 32.353 10.5213C33.2275 12.5358 33.6652 14.6952 33.6663 16.9997C33.6663 19.2775 33.2286 21.4302 32.353 23.458C31.4775 25.4858 30.283 27.2569 28.7697 28.7713C27.2563 30.2847 25.4925 31.4791 23.478 32.3547C21.4636 33.2302 19.3041 33.6674 16.9997 33.6663ZM16.9997 30.2497C17.7219 29.2497 18.3469 28.208 18.8747 27.1247C19.4025 26.0413 19.833 24.8886 20.1663 23.6663H13.833C14.1663 24.8886 14.5969 26.0413 15.1247 27.1247C15.6525 28.208 16.2775 29.2497 16.9997 30.2497ZM12.6663 29.583C12.1663 28.6663 11.7291 27.7147 11.3547 26.728C10.9802 25.7413 10.6675 24.7208 10.4163 23.6663H5.49967C6.30523 25.0552 7.31245 26.2636 8.52134 27.2913C9.73023 28.3191 11.1119 29.083 12.6663 29.583ZM21.333 29.583C22.8886 29.083 24.2708 28.3191 25.4797 27.2913C26.6886 26.2636 27.6952 25.0552 28.4997 23.6663H23.583C23.333 24.7219 23.0208 25.743 22.6463 26.7297C22.2719 27.7163 21.8341 28.6674 21.333 29.583ZM4.08301 20.333H9.74967C9.66634 19.7775 9.60412 19.2291 9.56301 18.688C9.5219 18.1469 9.50079 17.5841 9.49967 16.9997C9.49967 16.4163 9.52079 15.8541 9.56301 15.313C9.60523 14.7719 9.66745 14.223 9.74967 13.6663H4.08301C3.94412 14.2219 3.84023 14.7708 3.77134 15.313C3.70245 15.8552 3.66745 16.4175 3.66634 16.9997C3.66634 17.583 3.70134 18.1458 3.77134 18.688C3.84134 19.2302 3.94523 19.7786 4.08301 20.333ZM13.083 20.333H20.9163C20.9997 19.7775 21.0625 19.2291 21.1047 18.688C21.1469 18.1469 21.1675 17.5841 21.1663 16.9997C21.1663 16.4163 21.1452 15.8541 21.103 15.313C21.0608 14.7719 20.9986 14.223 20.9163 13.6663H13.083C12.9997 14.2219 12.9375 14.7708 12.8963 15.313C12.8552 15.8552 12.8341 16.4175 12.833 16.9997C12.833 17.583 12.8541 18.1458 12.8963 18.688C12.9386 19.2302 13.0008 19.7786 13.083 20.333ZM24.2497 20.333H29.9163C30.0552 19.7775 30.1597 19.2291 30.2297 18.688C30.2997 18.1469 30.3341 17.5841 30.333 16.9997C30.333 16.4163 30.2986 15.8541 30.2297 15.313C30.1608 14.7719 30.0563 14.223 29.9163 13.6663H24.2497C24.333 14.2219 24.3958 14.7708 24.438 15.313C24.4802 15.8552 24.5008 16.4175 24.4997 16.9997C24.4997 17.583 24.4786 18.1458 24.4363 18.688C24.3941 19.2302 24.3319 19.7786 24.2497 20.333ZM23.583 10.333H28.4997C27.6941 8.94412 26.6875 7.73579 25.4797 6.70801C24.2719 5.68023 22.8897 4.91634 21.333 4.41634C21.833 5.33301 22.2708 6.28467 22.6463 7.27134C23.0219 8.25801 23.3341 9.27856 23.583 10.333ZM13.833 10.333H20.1663C19.833 9.11079 19.4025 7.95801 18.8747 6.87467C18.3469 5.79134 17.7219 4.74967 16.9997 3.74967C16.2775 4.74967 15.6525 5.79134 15.1247 6.87467C14.5969 7.95801 14.1663 9.11079 13.833 10.333ZM5.49967 10.333H10.4163C10.6663 9.27745 10.9791 8.25634 11.3547 7.26967C11.7302 6.28301 12.1675 5.3319 12.6663 4.41634C11.1108 4.91634 9.72856 5.68023 8.51967 6.70801C7.31079 7.73579 6.30412 8.94412 5.49967 10.333Z" fill="white"/>
</svg>
