<svg width="41" height="41" viewBox="0 0 41 41" fill="none" xmlns="http://www.w3.org/2000/svg">
<path d="M25.625 34.8499C25.8969 34.8499 26.1576 34.7419 26.3498 34.5497C26.542 34.3575 26.65 34.0967 26.65 33.8249C26.65 33.5531 26.542 33.2923 26.3498 33.1001C26.1576 32.9079 25.8969 32.7999 25.625 32.7999H12.3C11.2126 32.7999 10.1698 32.3679 9.40089 31.599C8.63199 30.8301 8.20002 29.7873 8.20002 28.6999V12.2999C8.20002 11.2125 8.63199 10.1697 9.40089 9.40076C10.1698 8.63187 11.2126 8.1999 12.3 8.1999H25.625C25.8969 8.1999 26.1576 8.09191 26.3498 7.89969C26.542 7.70746 26.65 7.44675 26.65 7.1749C26.65 6.90306 26.542 6.64234 26.3498 6.45012C26.1576 6.25789 25.8969 6.1499 25.625 6.1499H12.3C10.6689 6.1499 9.10467 6.79785 7.95132 7.9512C6.79797 9.10454 6.15002 10.6688 6.15002 12.2999V28.6999C6.15002 30.331 6.79797 31.8953 7.95132 33.0486C9.10467 34.202 10.6689 34.8499 12.3 34.8499H25.625ZM27.9743 12.5992C28.0695 12.5037 28.1826 12.428 28.3072 12.3763C28.4317 12.3247 28.5652 12.2981 28.7 12.2981C28.8348 12.2981 28.9683 12.3247 29.0929 12.3763C29.2174 12.428 29.3305 12.5037 29.4257 12.5992L36.6007 19.7742C36.6962 19.8694 36.7719 19.9825 36.8236 20.1071C36.8753 20.2316 36.9019 20.3651 36.9019 20.4999C36.9019 20.6347 36.8753 20.7682 36.8236 20.8927C36.7719 21.0173 36.6962 21.1304 36.6007 21.2256L29.4257 28.4006C29.3304 28.4959 29.2173 28.5715 29.0928 28.6231C28.9683 28.6747 28.8348 28.7012 28.7 28.7012C28.5652 28.7012 28.4318 28.6747 28.3073 28.6231C28.1828 28.5715 28.0696 28.4959 27.9743 28.4006C27.879 28.3053 27.8034 28.1922 27.7519 28.0676C27.7003 27.9431 27.6737 27.8097 27.6737 27.6749C27.6737 27.5401 27.7003 27.4067 27.7519 27.2822C27.8034 27.1576 27.879 27.0445 27.9743 26.9492L33.4007 21.5249H15.375C15.1032 21.5249 14.8425 21.4169 14.6502 21.2247C14.458 21.0325 14.35 20.7717 14.35 20.4999C14.35 20.2281 14.458 19.9673 14.6502 19.7751C14.8425 19.5829 15.1032 19.4749 15.375 19.4749H33.4007L27.9743 14.0506C27.8789 13.9554 27.8031 13.8423 27.7515 13.7178C27.6998 13.5932 27.6732 13.4597 27.6732 13.3249C27.6732 13.1901 27.6998 13.0566 27.7515 12.9321C27.8031 12.8075 27.8789 12.6944 27.9743 12.5992Z" fill="#1D1D1D"/>
</svg>
