<svg width="35" height="35" viewBox="0 0 35 35" fill="none" xmlns="http://www.w3.org/2000/svg">
<rect width="35" height="35" rx="17.5" fill="#2B71AF"/>
<g clip-path="url(#clip0_459_646)">
<path d="M24.1111 12.5H10.8889C10.6384 12.5 10.3982 12.5878 10.2211 12.7441C10.044 12.9004 9.94446 13.1123 9.94446 13.3333V21.6667C9.94446 21.8877 10.044 22.0996 10.2211 22.2559C10.3982 22.4122 10.6384 22.5 10.8889 22.5H24.1111C24.3616 22.5 24.6018 22.4122 24.7789 22.2559C24.9561 22.0996 25.0556 21.8877 25.0556 21.6667V13.3333C25.0556 13.1123 24.9561 12.9004 24.7789 12.7441C24.6018 12.5878 24.3616 12.5 24.1111 12.5ZM23.3839 21.6667H11.6728L14.9783 18.65L14.2983 18.0708L10.8889 21.1833V13.9667L16.7586 19.1208C16.9356 19.276 17.1749 19.3632 17.4245 19.3632C17.674 19.3632 17.9133 19.276 18.0903 19.1208L24.1111 13.8375V21.1292L20.6356 18.0625L19.9697 18.65L23.3839 21.6667ZM11.5075 13.3333H23.3461L17.4245 18.5292L11.5075 13.3333Z" fill="white" fill-opacity="0.8"/>
</g>
<defs>
<clipPath id="clip0_459_646">
<rect width="17" height="15" fill="white" transform="translate(9 10)"/>
</clipPath>
</defs>
</svg>
