<svg width="28" height="33" viewBox="0 0 28 33" fill="none" xmlns="http://www.w3.org/2000/svg">
<path d="M21.5 5.5625H6.5C6.25136 5.5625 6.0129 5.66127 5.83709 5.83709C5.66127 6.0129 5.5625 6.25136 5.5625 6.5V14C5.5625 14.2486 5.66127 14.4871 5.83709 14.6629C6.0129 14.8387 6.25136 14.9375 6.5 14.9375H21.5C21.7486 14.9375 21.9871 14.8387 22.1629 14.6629C22.3387 14.4871 22.4375 14.2486 22.4375 14V6.5C22.4375 6.25136 22.3387 6.0129 22.1629 5.83709C21.9871 5.66127 21.7486 5.5625 21.5 5.5625ZM20.5625 13.0625H7.4375V7.4375H20.5625V13.0625ZM25.25 0.5625H2.75C2.16984 0.5625 1.61344 0.792968 1.2032 1.2032C0.792968 1.61344 0.5625 2.16984 0.5625 2.75V30.25C0.5625 30.8302 0.792968 31.3866 1.2032 31.7968C1.61344 32.207 2.16984 32.4375 2.75 32.4375H25.25C25.8302 32.4375 26.3866 32.207 26.7968 31.7968C27.207 31.3866 27.4375 30.8302 27.4375 30.25V2.75C27.4375 2.16984 27.207 1.61344 26.7968 1.2032C26.3866 0.792968 25.8302 0.5625 25.25 0.5625ZM25.5625 30.25C25.5625 30.3329 25.5296 30.4124 25.471 30.471C25.4124 30.5296 25.3329 30.5625 25.25 30.5625H2.75C2.66712 30.5625 2.58763 30.5296 2.52903 30.471C2.47042 30.4124 2.4375 30.3329 2.4375 30.25V2.75C2.4375 2.66712 2.47042 2.58763 2.52903 2.52903C2.58763 2.47042 2.66712 2.4375 2.75 2.4375H25.25C25.3329 2.4375 25.4124 2.47042 25.471 2.52903C25.5296 2.58763 25.5625 2.66712 25.5625 2.75V30.25ZM9.3125 19.625C9.3125 19.934 9.22086 20.2361 9.04917 20.4931C8.87748 20.75 8.63345 20.9503 8.34794 21.0686C8.06243 21.1868 7.74827 21.2178 7.44517 21.1575C7.14208 21.0972 6.86367 20.9484 6.64515 20.7299C6.42663 20.5113 6.27781 20.2329 6.21752 19.9298C6.15723 19.6267 6.18818 19.3126 6.30644 19.0271C6.4247 18.7415 6.62497 18.4975 6.88192 18.3258C7.13887 18.1541 7.44097 18.0625 7.75 18.0625C8.1644 18.0625 8.56183 18.2271 8.85485 18.5201C9.14788 18.8132 9.3125 19.2106 9.3125 19.625ZM15.5625 19.625C15.5625 19.934 15.4709 20.2361 15.2992 20.4931C15.1275 20.75 14.8835 20.9503 14.5979 21.0686C14.3124 21.1868 13.9983 21.2178 13.6952 21.1575C13.3921 21.0972 13.1137 20.9484 12.8951 20.7299C12.6766 20.5113 12.5278 20.2329 12.4675 19.9298C12.4072 19.6267 12.4382 19.3126 12.5564 19.0271C12.6747 18.7415 12.875 18.4975 13.1319 18.3258C13.3889 18.1541 13.691 18.0625 14 18.0625C14.4144 18.0625 14.8118 18.2271 15.1049 18.5201C15.3979 18.8132 15.5625 19.2106 15.5625 19.625ZM21.8125 19.625C21.8125 19.934 21.7209 20.2361 21.5492 20.4931C21.3775 20.75 21.1335 20.9503 20.8479 21.0686C20.5624 21.1868 20.2483 21.2178 19.9452 21.1575C19.6421 21.0972 19.3637 20.9484 19.1451 20.7299C18.9266 20.5113 18.7778 20.2329 18.7175 19.9298C18.6572 19.6267 18.6882 19.3126 18.8064 19.0271C18.9247 18.7415 19.125 18.4975 19.3819 18.3258C19.6389 18.1541 19.941 18.0625 20.25 18.0625C20.6644 18.0625 21.0618 18.2271 21.3549 18.5201C21.6479 18.8132 21.8125 19.2106 21.8125 19.625ZM9.3125 25.875C9.3125 26.184 9.22086 26.4861 9.04917 26.7431C8.87748 27 8.63345 27.2003 8.34794 27.3186C8.06243 27.4368 7.74827 27.4678 7.44517 27.4075C7.14208 27.3472 6.86367 27.1984 6.64515 26.9799C6.42663 26.7613 6.27781 26.4829 6.21752 26.1798C6.15723 25.8767 6.18818 25.5626 6.30644 25.2771C6.4247 24.9915 6.62497 24.7475 6.88192 24.5758C7.13887 24.4041 7.44097 24.3125 7.75 24.3125C8.1644 24.3125 8.56183 24.4771 8.85485 24.7701C9.14788 25.0632 9.3125 25.4606 9.3125 25.875ZM15.5625 25.875C15.5625 26.184 15.4709 26.4861 15.2992 26.7431C15.1275 27 14.8835 27.2003 14.5979 27.3186C14.3124 27.4368 13.9983 27.4678 13.6952 27.4075C13.3921 27.3472 13.1137 27.1984 12.8951 26.9799C12.6766 26.7613 12.5278 26.4829 12.4675 26.1798C12.4072 25.8767 12.4382 25.5626 12.5564 25.2771C12.6747 24.9915 12.875 24.7475 13.1319 24.5758C13.3889 24.4041 13.691 24.3125 14 24.3125C14.4144 24.3125 14.8118 24.4771 15.1049 24.7701C15.3979 25.0632 15.5625 25.4606 15.5625 25.875ZM21.8125 25.875C21.8125 26.184 21.7209 26.4861 21.5492 26.7431C21.3775 27 21.1335 27.2003 20.8479 27.3186C20.5624 27.4368 20.2483 27.4678 19.9452 27.4075C19.6421 27.3472 19.3637 27.1984 19.1451 26.9799C18.9266 26.7613 18.7778 26.4829 18.7175 26.1798C18.6572 25.8767 18.6882 25.5626 18.8064 25.2771C18.9247 24.9915 19.125 24.7475 19.3819 24.5758C19.6389 24.4041 19.941 24.3125 20.25 24.3125C20.6644 24.3125 21.0618 24.4771 21.3549 24.7701C21.6479 25.0632 21.8125 25.4606 21.8125 25.875Z" fill="white"/>
</svg>
