<svg width="35" height="35" viewBox="0 0 35 35" fill="none" xmlns="http://www.w3.org/2000/svg">
<rect width="35" height="35" rx="17.5" fill="#2B71AF"/>
<path d="M10.625 11.25H15.9875L16.9169 15.4312L15.7544 16.5938C16.4376 17.6578 17.3421 18.562 18.4063 19.245L19.5688 18.0831L23.75 19.0125V24.375H23.125C20.719 24.3787 18.3635 23.6849 16.3438 22.3775C14.8545 21.4137 13.5863 20.1455 12.6225 18.6562C11.3151 16.6365 10.6213 14.281 10.625 11.875V11.25ZM11.8919 12.5C11.997 14.45 12.6109 16.3385 13.6725 17.9775C14.5402 19.3181 15.6819 20.4598 17.0225 21.3275C18.6616 22.3891 20.55 23.003 22.5 23.1081V20.015L19.9669 19.4525L18.6081 20.8119L18.1938 20.5763C16.6205 19.6821 15.3179 18.3795 14.4238 16.8063L14.1881 16.3919L15.5475 15.0331L14.985 12.5H11.8919Z" fill="white" fill-opacity="0.8"/>
</svg>
