<svg width="16" height="17" viewBox="0 0 16 17" fill="none" xmlns="http://www.w3.org/2000/svg">
<path d="M7.99975 1.52539C4.1479 1.52539 1.02539 4.6479 1.02539 8.49975C1.02539 12.3516 4.1479 15.477 8.0026 15.477C11.8573 15.477 14.9798 12.3545 14.9798 8.49975C14.9798 4.64505 11.8545 1.52539 7.99975 1.52539ZM9.88009 4.17781C10.7975 3.44562 13.4015 4.2006 13.5525 4.72482C13.7035 5.24904 13.4328 5.75901 10.108 6.70203C10.108 6.70203 8.96271 4.91285 9.87724 4.18066L9.88009 4.17781ZM6.12511 2.05246C6.66926 2.06955 7.07097 2.4855 6.93992 5.9385C6.93992 5.9385 4.88294 6.47696 4.46984 5.37724C4.05673 4.28038 5.58095 2.03821 6.12511 2.05246ZM3.93992 10.8929C2.76898 10.947 1.10516 8.80459 1.29035 8.29177C1.47268 7.77895 1.9969 7.52539 5.23622 8.71627C5.23622 8.71627 5.11086 10.8388 3.93992 10.8929ZM9.02254 13.1009C8.712 14.2319 6.15929 15.1493 5.72909 14.8188C5.29889 14.4855 5.21912 13.91 7.35303 11.1949C7.35303 11.1949 9.33308 11.9698 9.02254 13.1009ZM8.0026 10.9812C6.63223 10.9812 5.52112 9.87012 5.52112 8.49975C5.52112 7.12938 6.63223 6.01827 8.0026 6.01827C9.37297 6.01827 10.4841 7.12938 10.4841 8.49975C10.4841 9.87012 9.37297 10.9812 8.0026 10.9812ZM13.3103 12.6109C12.8601 12.9186 12.2903 12.816 10.3673 9.94704C10.3673 9.94704 11.7148 8.30317 12.6949 8.94989C13.675 9.59377 13.7604 12.306 13.3103 12.6109Z" fill="white"/>
<path d="M8 0.5C3.58974 0.5 0 4.08974 0 8.5C0 12.9103 3.58974 16.5 8 16.5C12.4103 16.5 16 12.9103 16 8.5C16 4.08974 12.4131 0.5 8 0.5ZM8 15.933C3.90313 15.933 0.569801 12.5997 0.569801 8.50285C0.569801 4.40598 3.90313 1.0698 8 1.0698C12.0969 1.0698 15.4302 4.40313 15.4302 8.5C15.4302 12.5969 12.0969 15.9302 8 15.9302V15.933Z" fill="white"/>
<path d="M7.93448 6.67106C8.03134 6.67106 8.10827 6.58844 8.10542 6.49157C8.10542 6.39471 8.0228 6.31778 7.92593 6.32063C7.82906 6.32063 7.75214 6.40325 7.75499 6.50012C7.75784 6.59699 7.83761 6.67391 7.93448 6.67106Z" fill="white"/>
<path d="M9.98547 8.29207C9.8886 8.29207 9.81168 8.37469 9.81453 8.47156C9.81453 8.56842 9.89715 8.64535 9.99402 8.6425C10.0909 8.6425 10.1678 8.55988 10.165 8.46301C10.165 8.36614 10.0823 8.28922 9.98547 8.29207Z" fill="white"/>
<path d="M8.01184 10.3487C7.91497 10.3487 7.83805 10.4313 7.8409 10.5282C7.8409 10.6251 7.92352 10.702 8.02038 10.6991C8.11725 10.6991 8.19417 10.6165 8.19132 10.5196C8.19132 10.4228 8.1087 10.3459 8.01184 10.3487Z" fill="white"/>
<path d="M5.95446 8.37703C5.8576 8.37703 5.78067 8.45965 5.78352 8.55652C5.78352 8.65338 5.86615 8.73031 5.96301 8.72746C6.05988 8.72461 6.1368 8.64484 6.13395 8.54797C6.13395 8.4511 6.05133 8.37418 5.95446 8.37703Z" fill="white"/>
<path d="M8.51518 7.75677C8.48954 7.71119 8.44111 7.68555 8.38983 7.68555H7.61205C7.56077 7.68555 7.51233 7.71404 7.48669 7.75677L7.09638 8.43199C7.07074 8.47757 7.07074 8.5317 7.09638 8.57729L7.48669 9.2525C7.51233 9.29808 7.56077 9.32372 7.61205 9.32372H8.38983C8.44111 9.32372 8.48954 9.29523 8.51518 9.2525L8.9055 8.57729C8.93114 8.5317 8.93114 8.47757 8.9055 8.43199L8.51518 7.75677Z" fill="white"/>
<path d="M8.00001 6.81616C7.06839 6.81616 6.31625 7.57115 6.31625 8.49992C6.31625 9.4287 7.07124 10.1837 8.00001 10.1837C8.92879 10.1837 9.68378 9.4287 9.68378 8.49992C9.68378 7.57115 8.92879 6.81616 8.00001 6.81616ZM9.15101 8.71645L8.7607 9.39166C8.68377 9.52271 8.54133 9.60534 8.39033 9.60534H7.61255C7.4587 9.60534 7.31625 9.52271 7.24218 9.39166L6.85187 8.71645C6.77494 8.58539 6.77494 8.42015 6.85187 8.28625L7.24218 7.61103C7.3191 7.47998 7.46155 7.39736 7.61255 7.39736H8.39033C8.54417 7.39736 8.68662 7.47998 8.7607 7.61103L9.15101 8.28625C9.22793 8.4173 9.22793 8.58254 9.15101 8.71645Z" fill="white"/>
</svg>
