<svg width="30" height="30" viewBox="0 0 30 30" fill="none" xmlns="http://www.w3.org/2000/svg">
<path d="M20.8333 18.8333H19.5167L19.05 18.3833C20.7398 16.4234 21.6685 13.9212 21.6667 11.3333C21.6667 9.19071 21.0313 7.09619 19.8409 5.31466C18.6505 3.53313 16.9586 2.14459 14.9791 1.32464C12.9995 0.504694 10.8213 0.290158 8.71986 0.708164C6.6184 1.12617 4.68808 2.15795 3.17302 3.67302C1.65795 5.18808 0.626171 7.1184 0.208164 9.21986C-0.209842 11.3213 0.00469392 13.4995 0.824643 15.4791C1.64459 17.4586 3.03313 19.1505 4.81466 20.3409C6.59619 21.5313 8.69071 22.1667 10.8333 22.1667C13.5167 22.1667 15.9833 21.1833 17.8833 19.55L18.3333 20.0167V21.3333L26.6667 29.65L29.15 27.1667L20.8333 18.8333ZM10.8333 18.8333C6.68334 18.8333 3.33334 15.4833 3.33334 11.3333C3.33334 7.18334 6.68334 3.83334 10.8333 3.83334C14.9833 3.83334 18.3333 7.18334 18.3333 11.3333C18.3333 15.4833 14.9833 18.8333 10.8333 18.8333Z" fill="white"/>
</svg>
