<svg width="24" height="24" viewBox="0 0 24 24" fill="none" xmlns="http://www.w3.org/2000/svg">
<g clip-path="url(#clip0_953_81)">
<path fill-rule="evenodd" clip-rule="evenodd" d="M12 2C12.2653 2 12.5196 2.10536 12.7072 2.29289C12.8947 2.48043 13 2.73478 13 3V3.962L13.654 3.616C13.8885 3.49201 14.1626 3.46624 14.4161 3.54435C14.6695 3.62245 14.8816 3.79805 15.0055 4.0325C15.1295 4.26695 15.1553 4.54105 15.0772 4.79451C14.9991 5.04797 14.8235 5.26001 14.589 5.384L13 6.224V8.126C13.715 8.31 14.352 8.686 14.854 9.197L16.502 8.246L16.435 6.45C16.4251 6.18492 16.5209 5.92674 16.7013 5.73226C16.8817 5.53779 17.132 5.42295 17.397 5.413C17.6621 5.40305 17.9203 5.49882 18.1148 5.67923C18.3093 5.85964 18.4241 6.10992 18.434 6.375L18.461 7.115L19.2941 6.634C19.4078 6.5673 19.5337 6.52377 19.6643 6.5059C19.795 6.48804 19.9279 6.49619 20.0554 6.5299C20.1829 6.56361 20.3025 6.62221 20.4072 6.70231C20.512 6.78242 20.5999 6.88246 20.6658 6.99667C20.7318 7.11088 20.7745 7.23701 20.7915 7.36779C20.8085 7.49857 20.7994 7.63142 20.7649 7.75869C20.7303 7.88597 20.6709 8.00515 20.5901 8.10937C20.5093 8.2136 20.4087 8.30082 20.2941 8.366L19.4611 8.846L20.088 9.24C20.1993 9.30986 20.2957 9.40095 20.3717 9.50806C20.4477 9.61517 20.5019 9.73621 20.5312 9.86426C20.5604 9.99231 20.5641 10.1249 20.5422 10.2544C20.5202 10.3839 20.4729 10.5078 20.403 10.619C20.3332 10.7302 20.2421 10.8266 20.135 10.9026C20.0279 10.9787 19.9068 11.0329 19.7788 11.0621C19.6507 11.0914 19.5182 11.0951 19.3887 11.0731C19.2592 11.0511 19.1353 11.0039 19.024 10.934L17.502 9.978L15.855 10.928C16.0499 11.629 16.0499 12.37 15.855 13.071L17.502 14.022L19.024 13.066C19.2487 12.9249 19.5202 12.8788 19.7788 12.9379C20.0374 12.997 20.262 13.1564 20.403 13.381C20.5441 13.6056 20.5902 13.8771 20.5311 14.1357C20.4721 14.3944 20.3127 14.6189 20.088 14.76L19.462 15.153L20.2941 15.634C20.4087 15.6992 20.5093 15.7864 20.5901 15.8906C20.6709 15.9949 20.7303 16.114 20.7649 16.2413C20.7994 16.3686 20.8085 16.5014 20.7915 16.6322C20.7745 16.763 20.7318 16.8891 20.6658 17.0033C20.5999 17.1175 20.512 17.2176 20.4072 17.2977C20.3025 17.3778 20.1829 17.4364 20.0554 17.4701C19.9279 17.5038 19.795 17.512 19.6643 17.4941C19.5337 17.4762 19.4078 17.4327 19.2941 17.366L18.462 16.886L18.434 17.625C18.4241 17.8901 18.3093 18.1404 18.1148 18.3208C17.9203 18.5012 17.6621 18.5969 17.397 18.587C17.132 18.5771 16.8817 18.4622 16.7013 18.2677C16.5209 18.0733 16.4251 17.8151 16.435 17.55L16.502 15.754L14.854 14.803C14.352 15.313 13.714 15.69 13 15.874V17.776L14.589 18.616C14.8235 18.74 14.9991 18.952 15.0772 19.2055C15.1553 19.4589 15.1295 19.733 15.0055 19.9675C14.8816 20.202 14.6695 20.3775 14.4161 20.4557C14.1626 20.5338 13.8885 20.508 13.654 20.384L13 20.038V21C13 21.2652 12.8947 21.5196 12.7072 21.7071C12.5196 21.8946 12.2653 22 12 22C11.7348 22 11.4805 21.8946 11.2929 21.7071C11.1054 21.5196 11 21.2652 11 21V20.038L10.346 20.384C10.23 20.4454 10.1029 20.4833 9.97217 20.4956C9.84142 20.5079 9.70954 20.4943 9.58404 20.4557C9.45854 20.417 9.34189 20.354 9.24074 20.2702C9.1396 20.1864 9.05594 20.0836 8.99455 19.9675C8.93316 19.8514 8.89523 19.7244 8.88294 19.5936C8.87064 19.4629 8.88422 19.331 8.92289 19.2055C8.96157 19.08 9.02459 18.9633 9.10834 18.8622C9.1921 18.761 9.29496 18.6774 9.41105 18.616L11 17.776V15.874C10.296 15.692 9.655 15.3214 9.14605 14.802L7.49805 15.754L7.56505 17.55C7.56991 17.6813 7.54887 17.8122 7.50313 17.9353C7.45739 18.0584 7.38784 18.1713 7.29847 18.2676C7.20909 18.3638 7.10163 18.4415 6.98222 18.4963C6.86282 18.551 6.7338 18.5816 6.60255 18.5865C6.47129 18.5914 6.34036 18.5703 6.21724 18.5246C6.09412 18.4788 5.98121 18.4093 5.88496 18.3199C5.78871 18.2305 5.71101 18.1231 5.65629 18.0037C5.60157 17.8843 5.57091 17.7553 5.56605 17.624L5.53905 16.885L4.70605 17.365C4.59221 17.4354 4.46539 17.4823 4.33311 17.5028C4.20083 17.5233 4.06578 17.517 3.93597 17.4844C3.80615 17.4517 3.68421 17.3933 3.57738 17.3127C3.47055 17.232 3.381 17.1307 3.31404 17.0148C3.24708 16.8989 3.20407 16.7707 3.18756 16.6379C3.17106 16.5051 3.18139 16.3703 3.21795 16.2415C3.25451 16.1127 3.31655 15.9926 3.40039 15.8882C3.48423 15.7839 3.58817 15.6974 3.70605 15.634L4.53905 15.153L3.91205 14.759C3.69336 14.6153 3.53972 14.3915 3.48411 14.1358C3.4285 13.8801 3.47535 13.6128 3.6146 13.3912C3.75385 13.1696 3.9744 13.0115 4.22894 12.9507C4.48347 12.8899 4.75169 12.9313 4.97605 13.066L6.49805 14.022L8.14505 13.071C7.95052 12.3702 7.95052 11.6298 8.14505 10.929L6.49805 9.979L4.97605 10.934C4.75169 11.0687 4.48347 11.1101 4.22894 11.0493C3.9744 10.9885 3.75385 10.8304 3.6146 10.6088C3.47535 10.3872 3.4285 10.1199 3.48411 9.86417C3.53972 9.60846 3.69336 9.38473 3.91205 9.241L4.53905 8.847L3.70605 8.367C3.47624 8.23439 3.30852 8.01592 3.23979 7.75965C3.17106 7.50339 3.20694 7.23031 3.33955 7.0005C3.47216 6.77069 3.69063 6.60297 3.94689 6.53424C4.20316 6.46551 4.47624 6.50139 4.70605 6.634L5.53905 7.115L5.56605 6.375C5.57599 6.10992 5.69084 5.85964 5.88531 5.67923C5.98161 5.5899 6.09455 5.52041 6.2177 5.47473C6.34085 5.42905 6.47179 5.40808 6.60305 5.413C6.73431 5.41792 6.86331 5.44865 6.98269 5.50343C7.10207 5.55821 7.20949 5.63597 7.29882 5.73226C7.38815 5.82856 7.45764 5.9415 7.50332 6.06465C7.549 6.1878 7.56997 6.31874 7.56505 6.45L7.49805 8.246L9.14605 9.198C9.655 8.67863 10.296 8.30799 11 8.126V6.224L9.41105 5.384C9.1766 5.26001 9.001 5.04797 8.92289 4.79451C8.84479 4.54105 8.87056 4.26695 8.99455 4.0325C9.11854 3.79805 9.33058 3.62245 9.58404 3.54435C9.83749 3.46624 10.1116 3.49201 10.346 3.616L11 3.962V3C11 2.73478 11.1054 2.48043 11.2929 2.29289C11.4805 2.10536 11.7348 2 12 2ZM12 14C12.5305 14 13.0392 13.7893 13.4143 13.4142C13.7893 13.0391 14 12.5304 14 12C14 11.4696 13.7893 10.9609 13.4143 10.5858C13.0392 10.2107 12.5305 10 12 10C11.4696 10 10.9609 10.2107 10.5858 10.5858C10.2108 10.9609 10 11.4696 10 12C10 12.5304 10.2108 13.0391 10.5858 13.4142C10.9609 13.7893 11.4696 14 12 14Z" fill="#2B71AF"/>
</g>
<defs>
<clipPath id="clip0_953_81">
<rect width="24" height="24" fill="white"/>
</clipPath>
</defs>
</svg>
