<svg xmlns="http://www.w3.org/2000/svg" width="16" height="15" fill="none" viewBox="0 0 16 15"><path fill="#fff" d="M12.8 1.362a1.2 1.2 0 0 0-.081-.427 1.1 1.1 0 0 0-.231-.362 1.1 1.1 0 0 0-.346-.241 1 1 0 0 0-.409-.085h-.272a.6.6 0 0 1-.05.25l-.534 1.115a.54.54 0 0 1-.308.28.5.5 0 0 1-.408-.03.55.55 0 0 1-.267-.323.58.58 0 0 1 .029-.426l.414-.866H9.328a.6.6 0 0 1-.05.25l-.534 1.115a.54.54 0 0 1-.309.272.5.5 0 0 1-.402-.032.55.55 0 0 1-.266-.317.58.58 0 0 1 .023-.422l.414-.866h-1.01a.6.6 0 0 1-.05.25L6.61 1.611a.54.54 0 0 1-.308.28.5.5 0 0 1-.407-.03.55.55 0 0 1-.268-.323.58.58 0 0 1 .03-.426L6.07.247H5.061a.6.6 0 0 1-.05.25l-.534 1.115a.54.54 0 0 1-.308.28.5.5 0 0 1-.408-.03.55.55 0 0 1-.267-.323.58.58 0 0 1 .029-.426l.414-.866H2.928a.6.6 0 0 1-.05.25l-.534 1.115a.54.54 0 0 1-.309.278.5.5 0 0 1-.406-.03.55.55 0 0 1-.267-.322.58.58 0 0 1 .028-.425l.414-.866h-.737c-.14 0-.28.028-.409.085Q.463.417.312.573a1.1 1.1 0 0 0-.23.362A1.2 1.2 0 0 0 0 1.362v1.674h12.8zM0 5.826c0 .296.112.58.312.789s.472.327.755.327h.737l-.414-.866a.58.58 0 0 1-.03-.427.55.55 0 0 1 .268-.322.51.51 0 0 1 .588.077.6.6 0 0 1 .128.172l.533 1.116a.6.6 0 0 1 .051.25h1.01l-.415-.866a.58.58 0 0 1-.027-.425.55.55 0 0 1 .267-.32.5.5 0 0 1 .406-.031.54.54 0 0 1 .308.276l.533 1.116a.6.6 0 0 1 .051.25h1.01l-.415-.866a.58.58 0 0 1-.026-.425.55.55 0 0 1 .267-.32.5.5 0 0 1 .405-.031.54.54 0 0 1 .308.276l.534 1.116a.6.6 0 0 1 .05.25h1.01l-.414-.866a.58.58 0 0 1 .071-.619.54.54 0 0 1 .367-.192.5.5 0 0 1 .389.138.6.6 0 0 1 .127.173l.533 1.116a.6.6 0 0 1 .051.25h1.01l-.415-.866a.58.58 0 0 1 .072-.619.54.54 0 0 1 .367-.192.5.5 0 0 1 .388.138.6.6 0 0 1 .127.173l.534 1.116a.6.6 0 0 1 .05.25h.273c.283 0 .554-.118.754-.327s.312-.493.312-.79V4.153H0zm16 3.348a1.2 1.2 0 0 0-.081-.427 1.1 1.1 0 0 0-.231-.362 1.1 1.1 0 0 0-.347-.242 1 1 0 0 0-.408-.085h-.737l.415.866a.58.58 0 0 1 .028.426.55.55 0 0 1-.267.323.5.5 0 0 1-.407.03.54.54 0 0 1-.309-.28l-.533-1.116a.6.6 0 0 1-.051-.25h-1.009l.414.867a.58.58 0 0 1 .027.424.55.55 0 0 1-.267.321.5.5 0 0 1-.405.031.54.54 0 0 1-.31-.277l-.532-1.116a.6.6 0 0 1-.051-.25h-1.01l.415.867a.58.58 0 0 1 .026.424.55.55 0 0 1-.267.321.5.5 0 0 1-.405.031.54.54 0 0 1-.308-.277l-.534-1.116a.6.6 0 0 1-.05-.25h-1.01l.414.867a.58.58 0 0 1 .027.424.55.55 0 0 1-.267.321.5.5 0 0 1-.405.031.54.54 0 0 1-.309-.277l-.533-1.116a.6.6 0 0 1-.051-.25H5.663l.414.867a.58.58 0 0 1 .027.424.55.55 0 0 1-.267.321.5.5 0 0 1-.406.031.54.54 0 0 1-.308-.277L4.59 8.307a.6.6 0 0 1-.051-.25h-.272a1.07 1.07 0 0 0-.754.327 1.1 1.1 0 0 0-.232.363 1.2 1.2 0 0 0-.081.427v1.674H16zM3.2 13.638q0 .221.081.427.082.204.231.362.151.156.346.241.197.085.409.085h.272a.6.6 0 0 1 .05-.25l.534-1.115a.56.56 0 0 1 .308-.28.5.5 0 0 1 .408.03.54.54 0 0 1 .267.323.58.58 0 0 1-.029.426l-.414.866h1.01a.6.6 0 0 1 .05-.25l.533-1.115a.56.56 0 0 1 .309-.28.5.5 0 0 1 .407.03.54.54 0 0 1 .267.323.58.58 0 0 1-.028.426l-.415.866h1.01a.6.6 0 0 1 .05-.25l.534-1.115a.56.56 0 0 1 .308-.28.5.5 0 0 1 .407.03.54.54 0 0 1 .268.323.58.58 0 0 1-.029.426l-.414.866h1.009a.6.6 0 0 1 .05-.25l.534-1.115a.56.56 0 0 1 .309-.28.5.5 0 0 1 .407.03.54.54 0 0 1 .267.323.58.58 0 0 1-.029.426l-.414.866h1.009a.6.6 0 0 1 .05-.25l.534-1.115a.54.54 0 0 1 .309-.278.5.5 0 0 1 .406.03.55.55 0 0 1 .267.322.58.58 0 0 1-.027.425l-.415.866h.737c.14 0 .28-.028.409-.085q.195-.085.346-.241a1.1 1.1 0 0 0 .23-.362 1.2 1.2 0 0 0 .082-.428v-1.673H3.2z"/></svg>