<svg width="35" height="35" viewBox="0 0 35 35" fill="none" xmlns="http://www.w3.org/2000/svg">
<rect width="35" height="35" rx="17.5" fill="#2B71AF"/>
<path d="M11.8334 21.7498C11.8334 20.9984 12.1319 20.2777 12.6632 19.7464C13.1946 19.215 13.9153 18.9165 14.6667 18.9165H20.3334C21.0848 18.9165 21.8055 19.215 22.3368 19.7464C22.8682 20.2777 23.1667 20.9984 23.1667 21.7498C23.1667 22.1256 23.0175 22.4859 22.7518 22.7516C22.4861 23.0172 22.1258 23.1665 21.75 23.1665H13.25C12.8743 23.1665 12.514 23.0172 12.2483 22.7516C11.9826 22.4859 11.8334 22.1256 11.8334 21.7498Z" stroke="white" stroke-opacity="0.8" stroke-linejoin="round"/>
<path d="M17.5 16.0833C18.6736 16.0833 19.625 15.1319 19.625 13.9583C19.625 12.7846 18.6736 11.8333 17.5 11.8333C16.3264 11.8333 15.375 12.7846 15.375 13.9583C15.375 15.1319 16.3264 16.0833 17.5 16.0833Z" stroke="white" stroke-opacity="0.8"/>
</svg>
